<mxfile host="app.diagrams.net" modified="2023-10-27T01:51:45.251Z" agent="Mozilla/5.0 (Windows NT 10.0; Win64; x64) AppleWebKit/537.36 (KHTML, like Gecko) Chrome/118.0.0.0 Safari/537.36" etag="zYK2I7n6W3bjkbQGbLUR" version="22.0.8" type="github">
  <diagram name="第 1 页" id="EtARWOg6xAyDZ1f2hzqj">
    <mxGraphModel dx="1014" dy="525" grid="1" gridSize="10" guides="1" tooltips="1" connect="1" arrows="1" fold="1" page="1" pageScale="1" pageWidth="827" pageHeight="1169" math="0" shadow="0">
      <root>
        <mxCell id="0" />
        <mxCell id="1" parent="0" />
        <mxCell id="Haqq4vETP8qOkuTh4B7w-8" style="edgeStyle=orthogonalEdgeStyle;rounded=0;orthogonalLoop=1;jettySize=auto;html=1;entryX=0;entryY=0.5;entryDx=0;entryDy=0;" edge="1" parent="1" source="Haqq4vETP8qOkuTh4B7w-1" target="Haqq4vETP8qOkuTh4B7w-5">
          <mxGeometry relative="1" as="geometry" />
        </mxCell>
        <mxCell id="Haqq4vETP8qOkuTh4B7w-9" style="edgeStyle=orthogonalEdgeStyle;rounded=0;orthogonalLoop=1;jettySize=auto;html=1;entryX=0;entryY=0.5;entryDx=0;entryDy=0;" edge="1" parent="1" source="Haqq4vETP8qOkuTh4B7w-1" target="Haqq4vETP8qOkuTh4B7w-6">
          <mxGeometry relative="1" as="geometry" />
        </mxCell>
        <mxCell id="Haqq4vETP8qOkuTh4B7w-10" style="edgeStyle=orthogonalEdgeStyle;rounded=0;orthogonalLoop=1;jettySize=auto;html=1;" edge="1" parent="1" source="Haqq4vETP8qOkuTh4B7w-1" target="Haqq4vETP8qOkuTh4B7w-7">
          <mxGeometry relative="1" as="geometry" />
        </mxCell>
        <mxCell id="Haqq4vETP8qOkuTh4B7w-16" value="&lt;font style=&quot;font-size: 14px;&quot;&gt;路由&lt;/font&gt;" style="edgeLabel;html=1;align=center;verticalAlign=middle;resizable=0;points=[];" vertex="1" connectable="0" parent="Haqq4vETP8qOkuTh4B7w-10">
          <mxGeometry x="-0.65" y="-1" relative="1" as="geometry">
            <mxPoint as="offset" />
          </mxGeometry>
        </mxCell>
        <mxCell id="Haqq4vETP8qOkuTh4B7w-1" value="" style="rounded=1;whiteSpace=wrap;html=1;" vertex="1" parent="1">
          <mxGeometry x="320" y="220" width="40" height="210" as="geometry" />
        </mxCell>
        <mxCell id="Haqq4vETP8qOkuTh4B7w-3" style="edgeStyle=orthogonalEdgeStyle;rounded=0;orthogonalLoop=1;jettySize=auto;html=1;entryX=0;entryY=0.5;entryDx=0;entryDy=0;" edge="1" parent="1" source="Haqq4vETP8qOkuTh4B7w-2" target="Haqq4vETP8qOkuTh4B7w-1">
          <mxGeometry relative="1" as="geometry" />
        </mxCell>
        <mxCell id="Haqq4vETP8qOkuTh4B7w-2" value="Actor" style="shape=umlActor;verticalLabelPosition=bottom;verticalAlign=top;html=1;outlineConnect=0;" vertex="1" parent="1">
          <mxGeometry x="90" y="295" width="30" height="60" as="geometry" />
        </mxCell>
        <mxCell id="Haqq4vETP8qOkuTh4B7w-4" value="&lt;font style=&quot;font-size: 14px;&quot;&gt;请求通用页脚 API&lt;/font&gt;" style="text;html=1;strokeColor=none;fillColor=none;align=center;verticalAlign=middle;whiteSpace=wrap;rounded=0;" vertex="1" parent="1">
          <mxGeometry x="150" y="290" width="120" height="30" as="geometry" />
        </mxCell>
        <mxCell id="Haqq4vETP8qOkuTh4B7w-5" value="&lt;font style=&quot;font-size: 14px;&quot;&gt;页脚 A Handler&lt;/font&gt;" style="rounded=1;whiteSpace=wrap;html=1;" vertex="1" parent="1">
          <mxGeometry x="480" y="220" width="120" height="50" as="geometry" />
        </mxCell>
        <mxCell id="Haqq4vETP8qOkuTh4B7w-6" value="页脚 B Handler" style="rounded=1;whiteSpace=wrap;html=1;" vertex="1" parent="1">
          <mxGeometry x="480" y="300" width="120" height="50" as="geometry" />
        </mxCell>
        <mxCell id="Haqq4vETP8qOkuTh4B7w-7" value="&lt;font style=&quot;font-size: 14px;&quot;&gt;页脚 C Handler&lt;/font&gt;" style="rounded=1;whiteSpace=wrap;html=1;" vertex="1" parent="1">
          <mxGeometry x="480" y="380" width="120" height="50" as="geometry" />
        </mxCell>
      </root>
    </mxGraphModel>
  </diagram>
</mxfile>
